<svg class="svg-icon" style="width: 1em;transform:rotate(-45deg); height: 1em;vertical-align: middle;fill:rgb(255 255 255);overflow: hidden;" viewBox="0 0 1024 1024" version="1.1" xmlns="http://www.w3.org/2000/svg"><path d="M512 96C318.56 96 160 254.56 160 448v48.992c-19.36 20.8-32 48-32 79.008 0 51.008 32.896 89.856 76 111.008C240.32 823.52 363.36 928 512 928c104.704 0 197.248-48.992 255.008-128H768a127.392 127.392 0 0 0 124.992-102.016c6.304-2.88 12.064-7.04 17.024-12 12.064-12.064 17.984-29.28 17.984-45.984v-160c0-16.704-5.92-33.92-18.016-46.016C897.92 421.92 880.736 416 864 416h-2.016C845.76 237.312 694.72 96 512 96z m0 64c139.712 0 256.16 100.608 282.016 232.992a139.04 139.04 0 0 0-17.024-4.992c-22.72-5.44-44.736-6.944-64.992-12-20.256-5.056-36.576-12.352-48.992-28C650.56 332.352 640 305.696 640 256h-64c0 63.136-18.08 88.512-44.992 104.992-26.944 16.512-69.664 22.048-116 23.008-46.368 0.96-94.08-2.656-136.992 6.016-18.112 3.616-36.608 9.376-52.032 20.992C244.416 269.92 366.08 160 512 160z m94.016 216.992c2.336 3.616 4.384 7.744 6.976 11.008 23.584 29.76 55.264 43.072 83.008 50.016 27.744 6.912 53.728 8.8 67.008 11.968 4.16 1.024 3.968 1.408 4.992 2.016V704h56c-10.304 19.68-30.08 32-56 32h-195.008a47.36 47.36 0 0 0-44.992-32 48 48 0 0 0 0 96h154.016c-44.512 40.224-103.872 64-170.016 64-122.24 0-224.448-88.384-250.016-202.016l-3.968-17.984-18.016-6.016C210.208 628.832 192 607.072 192 576c0-26.816 21.44-53.92 40-59.008L256 511.04v-24.992c0-14.144 2.88-17.952 7.008-22.016 4.16-4.064 12.448-8.064 27.008-11.008 29.088-5.856 77.344-3.968 126.976-4.992 49.664-1.024 102.944-5.376 148-32.992a143.168 143.168 0 0 0 41.024-38.016zM832 480h32v160h-32v-160z m-432 32a48 48 0 1 0 0 96 48 48 0 0 0 0-96z m224 0a48 48 0 1 0 0 96 48 48 0 0 0 0-96z"  /></svg>