<svg class="svg-icon" style="width: 1em; height: 1em;vertical-align: middle;fill:rgb(255 255 255);overflow: hidden;" viewBox="0 0 1024 1024" version="1.1" xmlns="http://www.w3.org/2000/svg"><path d="M512 1024C229.2224 1024 0 794.7776 0 512S229.2224 0 512 0s512 229.2224 512 512-229.2224 512-512 512z m0-998.4C243.3792 25.6 25.6 243.3792 25.6 512s217.7792 486.4 486.4 486.4 486.4-217.7792 486.4-486.4S780.6208 25.6 512 25.6z" fill="" /><path d="M512 1024C229.2224 1024 0 794.7776 0 512S229.2224 0 512 0s512 229.2224 512 512-229.2224 512-512 512z m0-998.4C243.3792 25.6 25.6 243.3792 25.6 512s217.7792 486.4 486.4 486.4 486.4-217.7792 486.4-486.4S780.6208 25.6 512 25.6z" fill="" /><path d="M764.1088 543.616a16.0512 16.0512 0 0 1-16 12.7488 17.3312 17.3312 0 0 1-2.7904-0.2304c-8.832-1.4592-14.7456-9.3952-13.2352-17.7408 21.6576-118.4-62.592-231.3728-187.8016-251.8528-8.832-1.4336-14.7712-9.3952-13.2352-17.7408 1.536-8.3456 9.9328-13.952 18.7648-12.5184 34.9696 5.7344 67.712 17.7408 97.3312 35.7632a256.2816 256.2816 0 0 1 72.7552 65.9456 241.152 241.152 0 0 1 41.2672 86.9376 234.0352 234.0352 0 0 1 2.944 98.688z m-96.768-150.5792c30.976 41.5232 43.008 91.9808 33.8432 142.08a16.0256 16.0256 0 0 1-15.9744 12.7232 17.1008 17.1008 0 0 1-2.7904-0.2304c-8.832-1.4336-14.7712-9.3696-13.2352-17.7408 15.8464-86.7072-45.8496-169.4464-137.5488-184.448-8.8576-1.4336-14.7712-9.3696-13.2352-17.7408 1.5104-8.3456 9.9328-13.952 18.7648-12.5184 52.9664 8.6784 99.2 36.3264 130.176 77.8752z m-55.2448 36.8384a117.888 117.888 0 0 1 22.016 92.4928 16 16 0 0 1-15.9744 12.7232 17.1008 17.1008 0 0 1-2.7904-0.2304c-8.832-1.4336-14.7712-9.3696-13.2352-17.7408a88.6528 88.6528 0 0 0-16.5632-69.5552 98.6112 98.6112 0 0 0-63.744-38.1184c-8.832-1.4592-14.7712-9.3952-13.2352-17.7408 1.536-8.3712 9.9328-13.9776 18.7648-12.5184 34.4832 5.632 64.5888 23.6288 84.7616 50.688z m-173.7728 142.4896a421.5552 421.5552 0 0 0 87.0912 79.1296c6.3232 4.3264 19.5072 1.8688 27.0336-7.7824l11.136-14.3104c15.7184-20.1728 43.9552-27.9808 65.6384-18.1248l67.2512 30.464c10.112 4.5824 17.6896 12.5696 21.3504 22.5024 4.0192 10.9056 3.0208 23.1168-2.7904 34.4064l-33.2032 64.384a57.1136 57.1136 0 0 1-27.4432 25.472 57.0368 57.0368 0 0 1-23.2448 5.0944c-5.0432 0-9.984-0.7168-14.72-2.176a558.9248 558.9248 0 0 1-132.4544-60.0064 496.7936 496.7936 0 0 1-119.6032-104.2944 472.2176 472.2176 0 0 1-77.6704-132.8128l-0.7424-1.9456a490.9568 490.9568 0 0 1-29.8752-135.9872c-0.896-11.9296 3.4048-24.0384 12.1344-34.1504a59.0592 59.0592 0 0 1 32.7168-19.072l75.5968-15.36a50.688 50.688 0 0 1 32.7936 3.9168c10.24 5.1456 17.5616 13.824 20.5824 24.3968l18.3808 64.0256c6.272 21.7856-7.0656 46.336-30.976 57.1392l-26.8032 12.0832c-10.9312 4.9408-16.0256 15.8464-13.312 22.3232a403.2256 403.2256 0 0 0 61.1328 100.6848z m-89.216-125.1584a57.0368 57.0368 0 0 1 27.392-25.5488l26.8288-12.1088c10.4704-4.7104 15.488-14.848 13.6192-21.376l-18.3808-64.0256c-1.7664-6.144-8.9088-7.6032-15.232-6.3232l-75.5712 15.36c-10.9568 2.2272-19.968 12.032-19.2768 20.992a460.928 460.928 0 0 0 27.776 127.1296l0.2816 0.7424a441.6 441.6 0 0 0 73.3952 126.1568 465.9456 465.9456 0 0 0 111.9488 97.6128 524.6464 524.6464 0 0 0 124.5696 56.3968c9.0368 2.7904 21.2736-3.1232 26.1888-12.6464l33.1776-64.3584c1.9712-3.84 2.4576-7.7824 1.3312-10.88a8.5248 8.5248 0 0 0-4.736-4.8896l-67.2256-30.4896c-7.5008-3.3792-19.1488 0.5888-25.472 8.6784l-11.136 14.2848a58.624 58.624 0 0 1-45.5936 22.3232c-9.5232 0-18.816-2.5344-26.5984-7.8336a453.1712 453.1712 0 0 1-93.6192-85.12 432.4352 432.4352 0 0 1-65.7664-108.2624c-4.7104-11.2384-3.968-23.9616 2.0992-35.8144z" fill="" /></svg>